<?xml version="1.0" encoding="utf-8"?>
<!-- Uploaded to: SVG Repo, www.svgrepo.com, Generator: SVG Repo Mixer Tools -->
<svg fill="#000000" height="800px" width="800px" version="1.2" baseProfile="tiny" id="Layer_1" xmlns="http://www.w3.org/2000/svg" xmlns:xlink="http://www.w3.org/1999/xlink"
	  viewBox="-351 153 256 256" xml:space="preserve">
<path id="_x31_" d="M-329.5,366.8h24.2V391h-24.2V366.8z M-321.4,304.5l22-10.2l10.2,22l-22,10.2L-321.4,304.5z M-350,264.4
	l34.3-34.3l17.1,17.1l-34.3,34.3L-350,264.4z M-263.5,385.8l17.1-17.1l17.1,17.1l-17.1,17.1L-263.5,385.8z M-303.1,166.7l5.7-5.7
	l73,73l-5.7,5.7L-303.1,166.7z M-305.3,208.6l5.7-5.7l73,73l-5.7,5.7L-305.3,208.6z M-135.9,249l-31.5,2.9l24.2,24.1l-5.6,5.8
	l-24.6-24.7l5.6-5.6l-73-73l-5.6,5.6l68.6,68.6l-7.3,0.8l-9.7,9.7l10.5,10.8l-5.6,5.6l-10.5-10.8l-10.8,10.8l-1.2,10.5l28.2,28.2
	l-5.6,5.6l-23.3-23.8l-4.9,49.2l32.6,32.6l43.6-4l39.2-39.5L-98,287L-135.9,249z"/>
</svg>